<svg id="svg" version="1.1" width="800" height="463" xmlns="http://www.w3.org/2000/svg"><path d="M442.441 7.419 C 440.568 8.788,440.490 10.700,440.223 62.169 C 440.070 91.501,439.747 116.063,439.504 116.750 C 438.967 118.270,429.761 118.363,415.640 116.990 C 403.674 115.826,398.450 113.481,392.387 106.550 C 388.479 102.082,380.000 86.631,380.000 83.978 C 380.000 82.294,373.057 69.871,369.850 65.816 C 368.248 63.791,364.716 60.766,362.001 59.096 C 352.190 53.059,351.251 52.996,271.188 53.036 C 214.639 53.063,197.279 53.363,193.000 54.388 C 178.769 57.793,172.296 64.471,161.083 87.316 C 148.699 112.548,145.138 115.623,126.567 117.118 C 120.480 117.609,95.925 118.390,72.000 118.855 C 23.288 119.801,22.881 119.860,14.443 127.269 C 8.851 132.179,5.597 138.146,3.885 146.634 C 1.864 156.655,1.860 425.502,3.882 434.500 C 6.277 445.161,10.861 450.979,20.500 455.588 C 24.409 457.457,30.040 457.495,269.000 457.271 C 403.475 457.144,576.629 456.694,653.787 456.271 C 776.833 455.595,794.190 455.316,795.021 454.000 C 795.605 453.076,795.974 406.003,795.982 331.500 C 795.989 264.950,796.108 165.232,796.247 109.904 C 796.458 25.836,796.275 9.036,795.128 7.654 C 793.860 6.127,780.343 6.000,619.069 6.000 C 469.818 6.000,444.100 6.207,442.441 7.419 " stroke="none" fill="#fff" fill-rule="evenodd"/></svg>