<svg id="svg" version="1.1" width="731" height="800" xmlns="http://www.w3.org/2000/svg"><path d="M343.352 7.993 C 340.781 9.031,339.829 10.387,338.492 14.913 C 337.714 17.550,336.689 18.588,333.992 19.473 C 327.884 21.477,326.807 25.253,326.325 46.350 C 326.097 56.333,325.684 65.966,325.408 67.758 C 324.496 73.679,322.009 74.417,300.507 75.147 C 279.724 75.854,274.720 76.975,273.077 81.296 C 271.113 86.463,269.666 87.000,257.679 87.006 C 242.425 87.013,239.374 87.962,237.033 93.423 L 235.192 97.717 225.685 98.215 C 215.330 98.756,210.485 100.643,208.326 104.974 C 206.699 108.237,204.815 109.093,197.175 110.040 C 190.944 110.813,190.307 111.142,185.995 115.807 C 181.739 120.412,180.997 120.804,175.284 121.467 C 168.906 122.207,164.800 124.442,161.043 129.218 C 159.950 130.608,156.680 132.709,153.778 133.887 C 149.795 135.504,148.009 136.930,146.500 139.698 C 144.910 142.615,143.480 143.689,139.526 144.934 C 135.216 146.291,134.415 146.967,133.526 150.000 C 132.036 155.082,131.205 156.000,128.096 156.000 C 125.031 156.000,122.000 158.682,122.000 161.394 C 122.000 164.793,120.018 167.000,116.965 167.000 C 113.456 167.000,110.006 170.089,109.985 173.250 C 109.963 176.444,109.080 177.303,104.075 179.000 C 100.031 180.370,99.556 180.887,98.575 184.988 C 97.596 189.075,97.185 189.527,93.966 190.045 C 88.919 190.859,88.084 191.624,87.369 196.094 C 86.721 200.144,84.789 202.000,81.221 202.000 C 78.608 202.000,76.378 204.799,75.623 209.027 C 75.101 211.952,74.268 212.892,70.755 214.527 C 66.931 216.307,66.306 217.126,64.345 222.912 C 63.151 226.438,61.426 229.742,60.514 230.252 C 56.818 232.321,53.467 237.353,52.500 242.285 C 51.598 246.887,51.181 247.471,48.255 248.222 C 43.729 249.383,42.205 252.286,41.291 261.482 L 40.500 269.439 36.542 270.548 C 31.610 271.930,30.113 275.022,30.030 284.000 C 29.959 291.666,29.638 292.302,24.830 294.303 C 20.094 296.275,18.983 298.515,18.385 307.301 C 17.565 319.357,17.167 320.808,14.296 322.214 C 9.081 324.767,7.599 329.852,6.924 347.500 C 6.587 356.300,5.994 364.221,5.606 365.102 C 5.139 366.161,4.070 366.545,2.450 366.235 L 0.000 365.767 0.000 417.383 L 0.000 469.000 2.525 469.000 C 5.819 469.000,7.000 472.115,7.002 480.815 C 7.003 485.176,7.611 488.717,8.752 491.000 C 11.219 495.940,16.558 497.134,34.587 496.778 L 48.673 496.500 52.485 493.150 C 61.093 485.586,61.397 484.903,62.096 471.581 C 62.784 458.450,63.283 456.362,65.934 455.521 C 69.124 454.508,72.486 449.915,73.507 445.176 L 74.513 440.500 98.504 440.231 C 123.635 439.950,126.781 440.366,128.525 444.200 C 129.990 447.419,133.974 449.929,138.978 450.783 C 143.155 451.496,143.555 451.843,144.999 455.998 C 146.340 459.854,147.069 460.596,150.460 461.547 C 154.501 462.681,155.150 463.410,156.651 468.500 C 157.346 470.856,158.444 471.789,161.773 472.847 C 165.051 473.888,166.138 474.794,166.574 476.847 C 167.725 482.262,168.857 483.810,172.186 484.522 C 176.632 485.473,177.677 486.464,178.422 490.435 C 179.195 494.555,180.523 495.728,185.578 496.760 C 188.910 497.440,189.787 498.192,191.410 501.756 C 192.841 504.899,194.174 506.232,196.725 507.074 C 202.727 509.055,213.028 505.659,216.337 500.608 C 217.241 499.229,220.676 496.864,223.970 495.351 C 228.409 493.314,230.361 491.760,231.503 489.352 C 232.352 487.564,234.941 484.829,237.257 483.273 C 239.573 481.717,241.966 479.448,242.573 478.229 C 244.317 474.732,246.942 472.231,249.561 471.574 C 251.052 471.200,252.761 469.428,254.029 466.944 C 255.218 464.613,257.221 462.471,258.791 461.853 C 263.857 459.858,264.499 459.326,266.561 455.412 C 268.493 451.745,268.932 451.484,273.561 451.246 C 276.278 451.107,281.425 450.490,285.000 449.875 C 288.575 449.261,293.750 448.822,296.500 448.899 C 299.940 448.996,301.053 448.746,300.066 448.097 C 298.996 447.394,299.498 447.071,302.043 446.827 C 304.447 446.597,305.803 445.796,306.637 444.115 C 307.287 442.803,308.422 441.348,309.160 440.880 C 310.955 439.742,318.131 439.798,319.976 440.964 C 321.234 441.760,321.117 442.350,319.182 444.967 C 317.042 447.862,316.907 449.015,316.800 465.268 C 316.549 503.706,316.745 570.091,317.136 579.000 C 317.365 584.225,317.139 590.075,316.632 592.000 C 316.125 593.925,315.438 614.833,315.105 638.462 L 314.500 681.423 311.000 683.774 C 309.075 685.067,306.712 687.652,305.749 689.517 C 304.423 692.086,303.143 693.070,300.475 693.571 C 296.832 694.254,294.000 697.148,294.000 700.187 C 294.000 702.719,290.880 704.000,284.715 704.000 C 278.025 704.000,273.271 702.430,272.487 699.960 C 271.521 696.915,266.367 693.238,262.040 692.507 C 259.824 692.132,257.800 691.485,257.542 691.068 C 257.285 690.651,256.877 677.303,256.636 661.405 C 256.341 641.878,255.808 631.648,254.996 629.875 C 254.307 628.372,252.020 626.448,249.646 625.375 C 245.575 623.534,245.488 623.388,244.812 617.266 C 243.836 608.411,242.355 605.915,236.348 603.000 C 233.515 601.625,229.168 598.616,226.689 596.313 C 220.694 590.744,216.439 589.726,201.040 590.177 C 186.543 590.600,183.358 591.711,180.749 597.251 C 179.275 600.383,178.365 601.078,175.043 601.609 C 170.342 602.361,168.561 604.128,167.093 609.500 C 166.274 612.496,165.183 613.891,162.749 615.058 C 160.819 615.983,158.688 618.215,157.500 620.558 C 155.593 624.316,155.500 626.481,155.500 667.000 C 155.500 705.780,155.655 709.784,157.271 712.741 C 158.245 714.523,160.270 716.763,161.771 717.717 C 165.631 720.173,165.789 720.546,166.551 728.952 C 167.453 738.894,168.988 742.336,173.905 745.440 C 176.499 747.078,178.183 748.993,178.574 750.751 C 178.911 752.263,179.384 754.239,179.626 755.142 C 179.868 756.046,181.514 757.320,183.283 757.975 C 188.761 760.002,189.437 760.591,190.121 763.938 C 190.960 768.039,192.165 769.227,196.792 770.517 C 199.923 771.389,200.703 772.187,201.802 775.638 C 203.111 779.749,206.005 782.000,209.981 782.000 C 211.087 782.000,213.049 783.759,214.720 786.250 C 218.215 791.458,220.952 792.847,229.145 793.569 C 239.239 794.458,240.000 794.735,240.000 797.519 L 240.000 800.000 286.000 800.000 L 332.000 800.000 332.000 797.567 C 332.000 794.888,332.882 794.461,340.500 793.450 C 345.981 792.723,351.270 789.733,353.090 786.332 C 353.732 785.132,356.846 783.027,360.009 781.656 C 364.279 779.804,366.498 778.064,368.630 774.899 C 370.399 772.271,372.596 770.345,374.357 769.876 C 378.428 768.793,380.862 766.251,381.601 762.314 C 382.100 759.655,383.041 758.527,385.870 757.201 C 388.575 755.934,390.142 754.154,392.018 750.220 C 393.403 747.315,396.003 743.569,397.795 741.894 C 403.616 736.454,404.190 734.858,404.917 722.090 C 405.583 710.377,406.614 707.000,409.524 707.000 C 410.227 707.000,411.817 705.313,413.057 703.250 C 415.895 698.528,416.863 683.704,416.892 644.500 C 416.917 611.528,416.220 604.289,412.564 599.496 C 411.098 597.573,409.290 596.000,408.547 596.000 C 406.504 596.000,405.000 590.487,405.000 583.000 C 405.000 574.967,406.287 570.802,409.176 569.479 C 410.353 568.941,412.145 566.932,413.158 565.016 C 414.827 561.859,415.000 558.759,415.000 532.081 C 415.000 504.358,414.879 502.381,412.933 498.362 C 411.796 496.014,410.034 493.828,409.017 493.505 C 405.825 492.492,405.000 487.438,405.000 468.900 C 405.000 454.089,405.253 450.958,406.505 450.257 C 407.894 449.480,423.564 450.380,428.744 451.535 C 430.107 451.839,431.552 453.385,432.425 455.475 C 433.394 457.795,435.006 459.394,437.372 460.382 C 439.735 461.369,441.560 463.177,442.955 465.911 C 444.298 468.545,446.395 470.671,448.917 471.958 C 451.375 473.211,453.488 475.321,454.654 477.683 C 455.799 480.004,457.974 482.197,460.383 483.462 C 462.784 484.723,464.883 486.835,465.883 489.000 C 467.055 491.537,468.918 493.188,472.652 495.000 C 475.485 496.375,479.832 499.384,482.311 501.687 C 487.472 506.481,493.388 508.493,499.757 507.620 C 506.356 506.715,509.306 504.699,519.786 493.930 C 528.060 485.428,529.656 483.251,530.550 479.242 C 531.507 474.950,531.935 474.442,535.420 473.464 C 539.614 472.288,542.000 469.765,542.000 466.509 C 542.000 463.559,543.880 462.001,547.450 461.993 C 550.989 461.986,554.031 460.098,559.601 454.453 C 561.797 452.227,565.141 449.962,567.031 449.420 C 569.333 448.760,571.367 447.095,573.194 444.375 L 575.920 440.316 591.078 439.660 C 599.414 439.299,612.746 439.299,620.703 439.661 C 635.121 440.316,635.174 440.327,636.085 442.909 C 637.671 447.406,638.622 448.460,641.955 449.416 C 645.383 450.399,646.495 452.171,647.473 458.203 C 647.922 460.972,649.219 462.886,652.613 465.787 C 656.864 469.421,657.204 470.082,657.961 476.184 C 658.945 484.120,659.499 485.180,665.965 491.500 L 671.081 496.500 688.336 496.500 C 711.386 496.500,712.380 495.857,713.819 480.010 C 714.481 472.722,714.594 472.471,717.889 470.917 C 722.368 468.804,724.007 465.381,724.700 456.690 C 725.365 448.339,726.314 446.000,729.035 446.000 C 730.956 446.000,731.000 445.095,731.000 406.000 L 731.000 366.000 728.545 366.000 C 725.873 366.000,725.686 365.422,724.528 353.612 C 723.810 346.294,721.551 342.337,717.289 340.930 L 714.000 339.845 713.976 329.172 C 713.938 312.704,712.055 306.984,706.186 305.511 C 702.489 304.583,702.034 303.492,702.010 295.500 C 701.980 285.562,700.704 281.948,695.575 277.281 C 691.852 273.892,691.063 272.502,690.527 268.382 C 689.424 259.914,689.091 259.187,683.991 254.086 C 681.246 251.341,678.997 248.511,678.994 247.798 C 678.991 247.084,678.512 244.784,677.930 242.687 C 677.049 239.515,676.125 238.554,672.436 236.972 C 668.833 235.428,668.000 234.589,668.000 232.503 C 668.000 228.415,665.584 223.720,661.746 220.350 C 657.608 216.717,656.503 214.833,655.612 209.887 C 654.870 205.773,652.496 203.227,648.370 202.124 C 646.214 201.547,645.278 200.482,644.504 197.723 C 643.270 193.323,641.895 191.834,637.773 190.433 C 634.496 189.320,633.811 188.447,632.352 183.527 C 631.666 181.212,630.491 180.214,627.046 179.016 C 623.302 177.715,622.489 176.941,621.760 173.989 C 620.744 169.874,617.721 167.000,614.409 167.000 C 612.566 167.000,611.533 165.942,609.769 162.250 C 607.850 158.234,606.836 157.290,603.203 156.140 C 599.706 155.034,598.797 154.237,598.322 151.860 C 597.584 148.172,594.044 145.352,589.101 144.517 C 586.269 144.039,583.813 142.443,579.740 138.434 C 575.972 134.726,573.410 133.000,571.674 133.000 C 567.078 133.000,564.223 131.293,563.528 128.129 C 562.688 124.305,561.562 123.422,555.614 121.924 C 552.101 121.040,549.375 119.364,545.776 115.877 C 542.445 112.650,539.672 110.878,537.399 110.526 C 535.529 110.237,532.399 109.750,530.442 109.444 C 528.485 109.138,526.123 107.958,525.192 106.821 C 519.598 99.989,517.732 99.172,505.796 98.325 L 496.822 97.688 494.707 93.335 C 492.020 87.802,489.404 87.013,473.735 87.006 L 461.971 87.000 460.057 83.750 C 457.384 79.210,455.302 77.311,452.185 76.570 C 450.708 76.219,441.850 75.687,432.500 75.387 C 423.150 75.087,414.022 74.388,412.215 73.832 C 406.179 71.976,405.567 69.816,404.908 48.047 C 404.242 26.046,403.676 23.896,397.754 20.875 C 395.636 19.794,393.657 18.142,393.358 17.205 C 390.174 7.247,389.429 6.982,364.782 7.063 C 354.177 7.098,344.534 7.517,343.352 7.993 " stroke="none" fill="#fff" fill-rule="evenodd"/></svg>