<?xml version="1.0" encoding="UTF-8" standalone="no"?>
<!-- Created with Inkscape (http://www.inkscape.org/) -->

<svg
   width="512"
   height="512"
   viewBox="0 0 135.46666 135.46667"
   version="1.1"
   id="svg461"
   inkscape:version="1.2.2 (b0a8486541, 2022-12-01)"
   sodipodi:docname="rc24.svg"
   xmlns:inkscape="http://www.inkscape.org/namespaces/inkscape"
   xmlns:sodipodi="http://sodipodi.sourceforge.net/DTD/sodipodi-0.dtd"
   xmlns="http://www.w3.org/2000/svg"
   xmlns:svg="http://www.w3.org/2000/svg">
  <sodipodi:namedview
     id="namedview463"
     pagecolor="#000000"
     bordercolor="#000000"
     borderopacity="0.25"
     inkscape:showpageshadow="2"
     inkscape:pageopacity="0"
     inkscape:pagecheckerboard="0"
     inkscape:deskcolor="#d1d1d1"
     inkscape:document-units="mm"
     showgrid="false"
     inkscape:zoom="0.74653479"
     inkscape:cx="396.4986"
     inkscape:cy="239.77449"
     inkscape:window-width="1920"
     inkscape:window-height="1008"
     inkscape:window-x="0"
     inkscape:window-y="0"
     inkscape:window-maximized="1"
     inkscape:current-layer="layer1" />
  <defs
     id="defs458" />
  <g
     inkscape:label="Layer 1"
     inkscape:groupmode="layer"
     id="layer1">
    <path
       d="m 22.989852,108.90518 -9.522459,8.92994 c 1.544748,1.44602 3.156517,2.81797 4.83527,4.11582 l 7.850744,-10.35831 c -1.079191,-0.86053 -2.13375,-1.75637 -3.163555,-2.68745 z M 57.968997,5.4172231 C 47.327637,5.4016273 36.846714,8.0109109 27.45482,13.014028 L 19.498263,7.8760888e-7 12.388161,29.106982 41.495154,36.217084 34.16287,24.155303 c 6.812502,-3.504881 14.318538,-5.452753 21.975696,-5.702895 v 5.7558 h 3.565647 v -5.7558 c 27.144197,0.930688 49.000647,22.593563 50.172777,49.728398 h -5.73463 v 3.555051 h 5.77694 C 108.88221,112.16463 64.119595,135.98904 30.004699,114.26951 l -7.522712,10.5805 c 36.4196,23.78713 85.472233,5.78677 97.861843,-35.910857 C 132.7334,47.241505 101.46863,5.3764579 57.968997,5.4172231 Z M 80.791147,41.983465 57.101389,77.23772 v 9.638844 H 80.981615 V 98.123647 H 91.170656 V 86.887145 h 4.877618 V 77.23772 H 91.170656 V 42.025786 Z M 80.992293,77.23772 H 68.48615 L 80.981735,58.901698 Z M 31.443795,75.862256 14.514953,93.108484 v 4.983424 H 52.414359 V 88.484802 H 32.914483 l 6.136683,-6.475271 c 4.937562,-5.106861 8.316299,-9.533039 10.136135,-13.27854 1.728578,-3.250833 2.681003,-6.857751 2.782656,-10.538188 -0.03199,-2.839622 -0.819701,-5.619444 -2.28539,-8.051768 -1.433057,-2.548171 -3.546852,-4.647339 -6.10493,-6.06263 -7.245827,-3.613563 -15.966339,-2.412179 -21.965138,3.026025 -3.435164,3.385764 -5.290269,8.030604 -5.565355,13.93453 h 10.157289 c -0.04079,-2.469065 0.803746,-4.871153 2.380604,-6.771526 1.394508,-1.620547 3.438323,-2.535806 5.575952,-2.497001 2.018742,-0.06278 3.97554,0.701605 5.417196,2.116103 1.404304,1.370319 2.171579,3.265461 2.116115,5.226773 -0.135962,2.394214 -0.855012,4.718905 -2.094962,6.771526 -1.347239,2.518159 -4.066434,5.847494 -8.157543,9.988002 z"
       fill="#ffffff"
       id="path56"
       sodipodi:nodetypes="cccccccccccccccccccccscccccccccccccccccccccccccccccccccccccc"
       style="stroke-width:1.05805" />
  </g>
</svg>
