<?xml version="1.0" encoding="UTF-8" standalone="no"?>
<!DOCTYPE svg PUBLIC "-//W3C//DTD SVG 1.1//EN" "http://www.w3.org/Graphics/SVG/1.1/DTD/svg11.dtd">
<svg width="100%" height="100%" viewBox="0 0 390 365" version="1.1" xmlns="http://www.w3.org/2000/svg" xmlns:xlink="http://www.w3.org/1999/xlink" xml:space="preserve" xmlns:serif="http://www.serif.com/" style="fill-rule:evenodd;clip-rule:evenodd;stroke-linejoin:round;stroke-miterlimit:1.5;">
    <g transform="matrix(1,0,0,1,-1439,-1716)">
        <g transform="matrix(1,0,0,1,5353.16,-0.172259)">
            <g transform="matrix(1,0,0,1,-5770.92,831.842)">
                <path d="M1903.53,886.132L1857.55,885.823C1857.93,885.824 1852.78,908.579 1887.46,940.825C1922.21,973.123 2200.55,1234 2200.55,1234C2200.55,1234 2214.8,1247.92 2246.02,1247.92L2245.96,1202.65L2239.82,1202.7C2231.35,1202.68 2228.7,1197.77 2214.96,1184.58C2188.64,1159.33 1909.5,898.26 1909.5,898.26C1909.5,898.26 1903.8,892.648 1903.53,886.132Z" style="stroke:black;stroke-width:0px;"/>
            </g>
        </g>
    </g>
</svg>
