<svg id="svg" version="1.1" width="786" height="800" xmlns="http://www.w3.org/2000/svg"><path d="M426.234 3.029 C 424.438 4.663,422.339 6.000,421.569 6.000 C 419.846 6.000,412.000 14.754,412.000 16.676 C 412.000 17.443,411.263 19.195,410.363 20.569 C 408.841 22.892,408.850 23.362,410.489 27.283 C 414.984 38.036,416.060 39.578,421.500 43.062 C 423.700 44.471,427.975 47.238,431.000 49.211 C 434.025 51.184,438.750 53.920,441.500 55.291 C 444.250 56.662,447.400 58.798,448.500 60.038 C 450.885 62.727,459.555 68.425,462.820 69.451 C 465.382 70.255,472.855 75.481,479.637 81.209 C 482.052 83.249,485.934 85.830,488.264 86.944 C 493.411 89.405,503.714 96.034,511.333 101.786 C 514.429 104.123,518.956 107.096,521.394 108.392 C 523.831 109.688,528.536 112.834,531.848 115.383 C 535.161 117.932,540.062 121.118,542.739 122.463 C 545.416 123.807,548.453 125.843,549.487 126.985 C 550.521 128.128,553.808 130.512,556.791 132.282 C 559.775 134.052,563.253 136.175,564.521 137.000 C 571.720 141.683,586.083 151.360,589.708 153.970 C 592.022 155.637,594.350 157.000,594.881 157.000 C 595.412 157.000,597.119 158.035,598.673 159.300 C 600.228 160.565,604.726 163.488,608.670 165.797 C 612.613 168.105,617.247 171.179,618.968 172.627 C 620.689 174.075,625.711 177.454,630.127 180.137 C 634.543 182.819,638.828 185.685,639.650 186.507 C 640.471 187.328,641.781 188.000,642.561 188.000 C 643.341 188.000,646.463 190.250,649.500 193.000 C 652.537 195.750,655.659 198.000,656.439 198.000 C 657.219 198.000,658.473 198.616,659.225 199.368 C 659.978 200.121,661.697 201.085,663.047 201.510 C 664.396 201.936,667.349 203.908,669.609 205.892 C 671.869 207.877,676.594 211.222,680.109 213.327 C 683.624 215.432,690.325 219.819,695.000 223.076 C 699.675 226.333,703.854 228.998,704.286 228.999 C 704.719 229.000,708.094 231.321,711.786 234.158 C 715.479 236.995,720.353 240.139,722.618 241.146 C 724.883 242.153,727.304 243.662,727.999 244.499 C 729.531 246.345,741.921 254.663,744.588 255.636 C 745.640 256.020,748.149 257.721,750.164 259.417 C 759.439 267.222,763.045 269.194,769.038 269.737 C 774.550 270.237,775.062 270.092,777.943 267.211 C 780.778 264.376,781.000 263.639,781.000 257.055 C 781.000 250.454,781.175 249.877,783.500 248.818 L 786.000 247.679 786.000 220.500 L 786.000 193.321 783.500 192.182 C 781.191 191.130,781.000 190.525,781.000 184.257 C 781.000 179.381,780.437 176.420,779.000 173.739 C 777.900 171.686,777.000 168.671,777.000 167.038 C 777.000 165.404,776.268 162.365,775.372 160.284 C 774.477 158.203,772.874 154.475,771.811 152.000 C 770.747 149.525,769.473 146.825,768.980 146.000 C 767.343 143.262,763.000 134.135,763.000 133.433 C 763.000 131.323,753.347 119.021,743.827 109.000 C 737.819 102.675,732.137 96.675,731.201 95.667 C 728.641 92.909,715.030 82.000,714.149 82.000 C 713.726 82.000,711.008 79.975,708.109 77.500 C 705.209 75.025,702.277 73.000,701.593 73.000 C 700.908 73.000,699.317 71.902,698.056 70.559 C 696.039 68.412,686.430 63.000,684.635 63.000 C 684.269 63.000,681.389 61.538,678.235 59.750 C 671.950 56.188,667.551 54.374,661.620 52.897 C 659.486 52.366,656.799 51.272,655.648 50.466 C 654.497 49.660,652.418 48.986,651.027 48.968 C 649.637 48.951,647.626 48.276,646.559 47.468 C 645.371 46.570,642.371 46.000,638.829 46.000 C 635.645 46.000,631.344 45.363,629.270 44.584 C 627.197 43.805,621.729 42.890,617.120 42.550 C 612.512 42.210,607.858 41.459,606.779 40.882 C 605.697 40.303,602.278 40.063,599.158 40.347 C 596.046 40.630,587.425 41.385,580.000 42.025 C 572.575 42.665,564.983 43.821,563.128 44.594 C 561.273 45.367,557.898 46.016,555.628 46.035 C 553.358 46.055,550.375 46.714,549.000 47.500 C 544.036 50.338,539.473 49.369,525.105 42.428 C 517.622 38.814,510.825 35.450,510.000 34.954 C 506.555 32.882,486.304 23.148,484.000 22.457 C 482.625 22.045,479.903 20.700,477.951 19.468 C 475.998 18.236,471.948 16.248,468.951 15.051 C 463.305 12.796,461.264 11.842,454.500 8.299 C 436.605 -1.074,431.741 -1.980,426.234 3.029 M458.259 110.974 C 454.717 112.483,430.910 136.971,429.347 140.712 C 427.667 144.734,425.502 145.792,422.618 144.002 C 421.453 143.279,419.600 142.196,418.500 141.594 C 417.400 140.992,414.700 139.119,412.500 137.432 C 410.300 135.744,405.978 132.707,402.896 130.682 C 397.367 127.048,397.159 127.000,387.129 127.000 C 376.980 127.000,376.960 127.005,373.732 130.264 C 371.955 132.059,369.262 134.074,367.750 134.742 C 366.238 135.410,365.000 136.542,365.000 137.256 C 365.000 137.970,364.212 139.668,363.250 141.027 C 360.505 144.906,359.089 156.253,360.560 162.583 C 362.549 171.138,367.814 176.778,379.610 182.990 C 382.849 184.696,387.830 187.984,390.677 190.296 C 393.525 192.608,396.852 195.198,398.071 196.052 C 400.178 197.528,400.227 197.870,399.073 203.052 C 398.405 206.048,397.394 209.850,396.825 211.500 C 393.409 221.419,393.500 234.085,397.024 239.034 C 398.111 240.560,399.000 242.286,399.000 242.869 C 399.000 243.452,400.012 244.449,401.250 245.085 C 402.488 245.720,404.850 247.497,406.500 249.033 C 408.150 250.569,411.425 252.877,413.777 254.163 C 416.130 255.448,419.730 257.504,421.777 258.730 C 423.825 259.957,426.175 261.260,427.000 261.627 C 427.825 261.994,430.388 263.128,432.695 264.147 C 435.578 265.421,439.331 266.010,444.695 266.032 C 449.967 266.053,453.130 266.540,454.441 267.532 C 456.895 269.388,463.728 269.371,467.000 267.500 C 470.335 265.594,491.906 265.381,492.380 267.250 C 492.554 267.938,493.286 270.075,494.005 272.000 C 494.725 273.925,495.512 277.892,495.753 280.815 C 496.278 287.161,494.612 289.620,489.113 290.614 C 487.126 290.973,484.285 291.882,482.800 292.634 C 480.767 293.662,474.801 294.000,458.659 294.000 C 439.434 294.000,436.768 293.796,432.859 292.022 C 430.462 290.934,427.524 290.034,426.331 290.022 C 425.138 290.010,422.888 289.364,421.331 288.587 C 419.774 287.810,416.700 286.404,414.500 285.465 C 412.300 284.525,409.226 283.135,407.669 282.378 C 403.530 280.364,400.646 280.683,398.053 283.444 C 396.222 285.392,395.889 286.559,396.411 289.194 C 396.771 291.012,397.457 294.750,397.935 297.500 C 398.414 300.250,400.199 305.579,401.903 309.343 C 403.606 313.107,405.000 317.301,405.000 318.664 C 405.000 321.498,414.325 341.195,416.536 343.030 C 417.341 343.698,418.000 344.849,418.000 345.588 C 418.000 346.326,419.288 348.409,420.861 350.215 C 422.435 352.022,424.475 354.850,425.394 356.500 C 426.313 358.150,428.191 361.525,429.567 364.000 C 431.987 368.350,457.581 395.000,459.340 395.000 C 459.817 395.000,462.900 397.250,466.191 400.000 C 469.482 402.750,472.703 405.000,473.348 405.000 C 473.994 405.000,476.262 406.503,478.388 408.341 C 481.939 411.410,483.975 412.631,491.000 415.903 C 492.375 416.544,495.300 418.170,497.500 419.517 C 499.700 420.865,502.306 421.975,503.292 421.984 C 504.277 421.993,508.102 423.426,511.792 425.169 C 515.481 426.912,520.300 428.680,522.500 429.098 C 524.700 429.516,529.650 430.821,533.500 431.997 C 537.350 433.174,542.750 434.567,545.500 435.092 C 548.250 435.617,552.411 436.484,554.747 437.019 C 562.223 438.730,581.021 439.268,589.500 438.014 C 593.900 437.363,600.425 436.492,604.000 436.079 C 607.575 435.665,611.940 434.578,613.700 433.663 C 615.461 432.749,618.836 431.984,621.200 431.965 C 623.565 431.945,626.625 431.286,628.000 430.500 C 629.375 429.714,631.680 429.055,633.123 429.035 C 635.490 429.003,639.873 427.423,648.500 423.491 C 650.150 422.739,653.750 421.161,656.500 419.985 C 659.250 418.808,662.694 417.205,664.154 416.423 C 665.614 415.640,667.422 415.000,668.171 415.000 C 668.921 415.000,671.777 413.047,674.517 410.661 C 679.326 406.473,681.946 404.804,688.636 401.668 C 692.785 399.722,722.539 370.065,723.478 366.939 C 723.881 365.598,726.344 362.250,728.951 359.500 C 733.807 354.379,740.000 344.966,740.000 342.707 C 740.000 342.013,740.689 340.461,741.531 339.259 C 742.373 338.057,744.166 334.141,745.515 330.556 C 746.864 326.971,750.000 320.186,752.484 315.476 C 754.968 310.767,757.000 306.316,757.000 305.584 C 757.000 303.156,752.733 294.528,750.618 292.681 C 748.304 290.660,737.579 284.000,736.639 284.000 C 735.492 284.000,724.481 276.723,721.500 273.995 C 718.610 271.350,716.009 269.756,709.420 266.594 C 707.727 265.781,705.702 264.341,704.920 263.395 C 704.139 262.449,701.647 260.853,699.382 259.849 C 697.117 258.845,694.651 257.284,693.901 256.381 C 692.187 254.316,679.635 246.000,678.232 246.000 C 677.658 246.000,675.234 244.357,672.845 242.349 C 670.455 240.341,666.059 237.612,663.076 236.285 C 660.093 234.957,656.268 232.410,654.576 230.625 C 651.085 226.941,642.798 221.421,635.697 218.050 C 633.056 216.796,628.556 213.746,625.697 211.272 C 622.839 208.798,618.939 206.102,617.032 205.282 C 615.125 204.462,612.425 202.914,611.032 201.842 C 606.445 198.311,600.933 195.000,599.643 195.000 C 598.945 195.000,597.052 193.614,595.437 191.920 C 593.822 190.226,588.285 186.289,583.133 183.170 C 577.981 180.052,572.089 176.375,570.040 175.000 C 567.991 173.625,564.781 171.510,562.907 170.301 C 561.033 169.091,557.475 166.701,555.000 164.989 C 546.443 159.071,543.478 157.139,538.157 154.015 C 535.219 152.290,530.989 149.556,528.757 147.939 C 526.526 146.323,524.341 145.000,523.903 145.000 C 523.465 145.000,520.242 142.863,516.743 140.250 C 513.243 137.637,508.468 134.375,506.132 133.000 C 503.796 131.625,498.938 128.373,495.337 125.773 C 491.735 123.173,484.898 118.698,480.144 115.829 C 472.955 111.490,470.574 110.562,466.000 110.316 C 462.975 110.152,459.492 110.449,458.259 110.974 M11.633 340.575 C 8.956 341.305,5.881 342.703,4.800 343.681 C 1.473 346.692,-0.234 351.995,0.512 357.000 C 0.882 359.475,1.489 364.875,1.862 369.000 C 2.236 373.125,3.094 377.483,3.771 378.684 C 4.447 379.886,5.000 382.142,5.000 383.699 C 5.000 385.256,5.900 388.209,7.000 390.261 C 8.100 392.314,8.999 394.782,8.997 395.746 C 8.996 396.711,9.873 399.300,10.947 401.500 C 12.021 403.700,13.876 407.525,15.071 410.000 C 18.662 417.442,20.754 421.100,22.710 423.357 C 23.731 424.536,26.277 428.062,28.366 431.192 C 33.955 439.568,62.830 466.000,66.391 466.000 C 66.630 466.000,69.217 467.575,72.140 469.500 C 75.063 471.425,78.003 473.000,78.674 473.000 C 79.344 473.000,82.580 474.575,85.865 476.500 C 89.149 478.425,92.167 480.000,92.571 480.000 C 92.976 480.000,96.050 481.294,99.403 482.875 C 102.756 484.456,107.525 486.084,110.000 486.493 C 112.475 486.902,115.715 487.858,117.200 488.618 C 118.686 489.378,121.412 490.000,123.259 490.000 C 125.106 490.000,127.491 490.661,128.559 491.468 C 129.626 492.276,132.528 492.951,135.007 492.968 C 137.485 492.986,141.085 493.500,143.007 494.111 C 147.829 495.645,174.476 498.201,186.000 498.235 C 197.334 498.269,225.069 495.666,229.993 494.106 C 231.915 493.498,235.541 493.000,238.052 493.000 C 240.563 493.000,243.491 492.339,244.559 491.532 C 245.626 490.724,247.985 490.049,249.800 490.032 C 251.614 490.014,254.314 489.388,255.800 488.639 C 257.285 487.891,260.428 486.983,262.784 486.622 C 265.140 486.261,269.908 484.623,273.381 482.983 C 276.853 481.342,280.041 480.000,280.466 480.000 C 280.891 480.000,283.831 478.425,287.000 476.500 C 290.169 474.575,293.400 473.000,294.181 473.000 C 294.962 473.000,298.379 470.761,301.776 468.024 C 305.173 465.286,309.425 462.411,311.226 461.634 C 317.564 458.900,333.757 444.037,341.757 433.612 C 353.087 418.846,364.000 399.838,364.000 394.869 C 364.000 393.837,364.900 391.314,366.000 389.261 C 367.100 387.209,368.000 384.580,368.000 383.418 C 368.000 382.257,368.661 379.982,369.469 378.362 C 370.506 376.285,371.002 371.406,371.155 361.816 C 371.438 343.971,370.874 342.986,358.736 340.123 C 351.233 338.354,18.188 338.788,11.633 340.575 M517.500 457.251 C 516.400 457.905,512.243 458.717,508.263 459.056 C 504.282 459.395,499.445 460.420,497.513 461.336 C 495.581 462.251,492.538 463.594,490.750 464.320 C 488.962 465.046,485.475 466.575,483.000 467.716 C 480.525 468.858,477.823 470.007,476.996 470.270 C 476.169 470.533,473.019 472.717,469.996 475.124 C 466.973 477.531,462.302 480.625,459.615 482.000 C 456.929 483.375,453.006 486.300,450.898 488.500 C 441.469 498.341,432.000 509.569,432.000 510.908 C 432.000 511.713,431.120 513.308,430.045 514.452 C 426.331 518.406,415.000 540.624,415.000 543.953 C 415.000 545.384,414.353 547.479,413.562 548.608 C 412.771 549.738,411.983 552.874,411.812 555.578 L 411.500 560.494 396.500 568.007 C 375.565 578.493,355.627 587.994,354.472 588.034 C 353.937 588.053,351.700 588.937,349.500 590.000 C 347.300 591.063,344.600 591.963,343.500 592.002 C 342.400 592.040,340.375 592.714,339.000 593.500 C 333.761 596.495,322.910 594.210,317.991 589.075 C 315.051 586.007,310.000 579.199,310.000 578.306 C 310.000 577.808,309.492 576.892,308.870 576.270 C 307.691 575.091,304.089 565.410,304.033 563.268 C 304.015 562.590,305.720 559.215,307.822 555.768 C 312.631 547.882,316.989 538.678,317.035 536.312 C 317.055 535.315,317.714 533.375,318.500 532.000 C 320.431 528.623,320.457 515.785,318.542 512.080 C 317.739 510.529,314.724 507.139,311.841 504.547 C 306.914 500.117,306.326 499.861,302.050 500.287 C 297.474 500.742,289.775 503.142,284.846 505.650 C 283.386 506.392,281.136 507.016,279.846 507.035 C 278.556 507.055,276.375 507.714,275.000 508.500 C 273.625 509.286,271.593 509.945,270.485 509.965 C 269.377 509.984,266.791 510.900,264.739 512.000 C 262.686 513.100,259.292 514.000,257.195 514.000 C 255.098 514.000,252.509 514.661,251.441 515.468 C 250.374 516.276,247.925 516.953,246.000 516.974 C 244.075 516.995,241.165 517.708,239.534 518.559 C 236.876 519.945,219.339 522.291,217.934 521.449 C 217.623 521.262,215.598 521.740,213.434 522.511 C 207.812 524.514,164.366 524.598,159.621 522.615 C 157.797 521.853,153.874 520.930,150.903 520.563 C 147.931 520.197,143.925 519.303,142.000 518.578 C 127.273 513.027,120.326 512.552,113.381 516.623 C 106.470 520.673,104.000 525.054,104.000 533.261 C 104.000 543.013,107.353 549.060,119.174 560.624 C 127.728 568.993,129.701 570.351,143.000 577.024 C 158.047 584.575,170.614 589.656,177.500 590.974 C 179.700 591.396,183.173 592.474,185.218 593.370 C 187.263 594.267,190.863 595.016,193.218 595.035 C 195.573 595.055,198.625 595.714,200.000 596.500 C 201.375 597.286,203.659 597.945,205.076 597.965 C 207.853 598.003,212.000 601.691,212.000 604.123 C 212.000 604.945,212.661 606.491,213.468 607.559 C 214.276 608.626,214.957 610.400,214.983 611.500 C 215.009 612.600,215.656 614.625,216.421 616.000 C 220.898 624.043,229.000 641.749,229.000 643.490 C 229.000 644.378,229.873 646.768,230.940 648.802 C 233.574 653.822,236.000 659.583,236.000 660.819 C 236.000 663.001,241.109 671.843,244.807 676.061 C 246.947 678.503,249.347 681.749,250.140 683.276 C 253.001 688.780,263.254 698.040,270.463 701.631 C 285.985 709.361,288.673 710.000,305.685 710.000 C 315.670 710.000,321.904 709.582,323.316 708.818 C 324.517 708.168,328.425 707.090,332.000 706.423 C 335.575 705.756,339.850 704.749,341.500 704.185 C 344.526 703.152,351.388 701.335,356.000 700.345 C 357.375 700.050,362.148 698.276,366.608 696.404 C 375.302 692.754,382.276 691.758,380.008 694.490 C 379.328 695.310,378.534 699.022,378.244 702.740 C 377.954 706.458,377.106 710.388,376.359 711.473 C 375.611 712.557,375.000 715.540,375.000 718.100 C 375.000 721.018,374.440 723.220,373.500 724.000 C 372.516 724.817,372.000 727.047,372.000 730.488 C 372.000 734.216,371.422 736.465,370.000 738.273 C 368.900 739.671,368.000 741.771,368.000 742.940 C 368.000 744.108,367.325 746.680,366.500 748.654 C 365.675 750.629,365.000 754.783,365.000 757.887 C 365.000 761.619,364.323 764.793,363.000 767.261 C 361.537 769.990,361.000 772.903,361.000 778.102 C 361.000 784.318,361.331 785.607,363.633 788.356 C 365.080 790.085,367.443 792.285,368.883 793.243 C 371.344 794.883,381.014 794.987,531.314 794.993 L 691.128 795.000 696.521 792.533 C 703.074 789.536,705.443 785.774,704.649 779.624 C 703.153 768.051,701.962 761.798,700.863 759.759 C 700.193 758.516,699.316 754.350,698.913 750.500 C 698.511 746.650,697.716 741.700,697.148 739.500 C 695.102 731.584,693.851 724.352,693.080 715.985 C 692.648 711.302,691.554 706.037,690.647 704.285 C 689.607 702.272,688.987 698.596,688.965 694.300 C 688.944 690.301,688.340 686.470,687.500 685.000 C 686.714 683.625,686.052 680.475,686.029 678.000 C 686.003 675.243,685.217 672.338,684.000 670.500 C 682.507 668.246,682.003 665.760,681.971 660.500 C 681.946 656.339,681.350 652.486,680.500 651.000 C 679.714 649.625,679.055 646.324,679.035 643.664 C 679.004 639.336,678.069 634.365,674.869 621.500 C 674.322 619.300,673.286 613.642,672.567 608.927 C 671.848 604.211,670.751 599.403,670.130 598.242 C 669.508 597.081,669.000 592.736,669.000 588.586 C 669.000 584.436,668.363 579.344,667.584 577.270 C 665.451 571.591,663.189 563.030,662.530 558.145 C 662.207 555.750,661.281 552.510,660.471 550.945 C 659.662 549.380,659.000 546.907,659.000 545.451 C 659.000 543.994,658.297 541.159,657.438 539.151 C 654.728 532.819,651.833 526.555,650.898 525.000 C 650.401 524.175,649.553 522.477,649.014 521.227 C 647.027 516.627,641.192 508.391,637.181 504.524 C 634.912 502.338,632.563 499.359,631.960 497.904 C 631.358 496.450,629.764 494.758,628.418 494.144 C 627.072 493.531,625.466 491.923,624.850 490.570 C 624.233 489.217,623.015 487.836,622.142 487.501 C 620.572 486.898,618.217 485.229,605.197 475.492 C 598.319 470.348,590.156 466.000,587.378 466.000 C 586.515 466.000,584.614 465.366,583.154 464.591 C 577.134 461.395,569.894 459.000,566.256 459.000 C 564.125 459.000,561.509 458.339,560.441 457.532 C 557.903 455.612,520.664 455.368,517.500 457.251 " stroke="none" fill="#fff" fill-rule="evenodd"/></svg>