<?xml version="1.0" encoding="UTF-8" standalone="no"?>
<!DOCTYPE svg PUBLIC "-//W3C//DTD SVG 1.1//EN" "http://www.w3.org/Graphics/SVG/1.1/DTD/svg11.dtd">
<svg width="100%" height="100%" viewBox="0 0 665 453" version="1.1" xmlns="http://www.w3.org/2000/svg"
    xmlns:xlink="http://www.w3.org/1999/xlink" xml:space="preserve" xmlns:serif="http://www.serif.com/"
    style="filter:invert(1);fill-rule:evenodd;clip-rule:evenodd;stroke-linecap:round;stroke-linejoin:round;stroke-miterlimit:1.5;">
    <g transform="matrix(1,0,0,1,-1820,-904)">
        <g transform="matrix(1,0,0,1,607.35,-433.879)">
            <g transform="matrix(2.67078,0,0,2.67231,-4069.01,-10187.5)">
                <path
                    d="M2220.91,4331.88C2220.91,4328.37 2219.51,4325 2217.03,4322.52C2214.54,4320.03 2211.17,4318.64 2207.65,4318.64L1996.74,4318.64C1993.23,4318.64 1989.86,4320.03 1987.37,4322.52C1984.88,4325 1983.49,4328.37 1983.49,4331.88L1983.49,4424.03C1983.49,4427.8 1985.09,4431.38 1987.9,4433.9C1997.93,4442.87 2022.29,4464.68 2031.67,4473.08C2034.1,4475.26 2037.25,4476.46 2040.52,4476.46C2064.87,4476.46 2170.23,4476.46 2207.65,4476.46C2214.97,4476.46 2220.91,4470.53 2220.91,4463.21L2220.91,4331.88Z"
                    style="stroke:white;fill-opacity:0;stroke:black;stroke-width:11.23px;" />
            </g>
            <g transform="matrix(0.730915,0,0,0.730915,-740.307,540.147)">
                <path
                    d="M2997.06,1600.62C2995.28,1600.62 2993.78,1600.01 2992.57,1598.8C2991.36,1597.58 2990.75,1596.09 2990.75,1594.31L2990.75,1431.22C2990.75,1429.44 2991.36,1427.94 2992.57,1426.73C2993.78,1425.52 2995.28,1424.91 2997.06,1424.91L3030.22,1424.91C3032,1424.91 3033.49,1425.52 3034.71,1426.73C3035.92,1427.94 3036.53,1429.44 3036.53,1431.22L3036.53,1554.6C3036.53,1556.78 3037.39,1558.86 3038.93,1560.4C3040.47,1561.94 3042.56,1562.81 3044.74,1562.81C3064.38,1562.81 3112.46,1562.81 3112.46,1562.81C3114.3,1562.81 3115.83,1563.41 3117.04,1564.63C3118.25,1565.84 3118.86,1567.37 3118.86,1569.21L3118.86,1594.31C3118.86,1596.09 3118.25,1597.58 3117.04,1598.8C3115.83,1600.01 3114.3,1600.62 3112.46,1600.62L2997.06,1600.62Z"
                    style="fill-rule:nonzero;" />
            </g>
            <g transform="matrix(0.730915,0,0,0.730915,-736.503,540.147)">
                <path
                    d="M3131.82,1600.62C3130.04,1600.62 3128.54,1600.01 3127.33,1598.8C3126.12,1597.58 3125.51,1596.09 3125.51,1594.31L3125.51,1476.4C3125.51,1474.62 3126.12,1473.13 3127.33,1471.91C3128.54,1470.7 3130.04,1470.09 3131.82,1470.09L3161.5,1470.09C3163.28,1470.09 3164.77,1470.7 3165.98,1471.91C3167.2,1473.13 3167.8,1474.62 3167.8,1476.4L3167.8,1594.31C3167.8,1596.09 3167.2,1597.58 3165.98,1598.8C3164.77,1600.01 3163.28,1600.62 3161.5,1600.62L3131.82,1600.62ZM3131.57,1451.39C3129.79,1451.39 3128.29,1450.79 3127.08,1449.57C3125.87,1448.36 3125.26,1446.86 3125.26,1445.09L3125.26,1422.53C3125.26,1420.75 3125.87,1419.24 3127.08,1417.99C3128.29,1416.75 3129.79,1416.13 3131.57,1416.13L3161.65,1416.13C3163.43,1416.13 3164.94,1416.75 3166.19,1417.99C3167.43,1419.24 3168.06,1420.75 3168.06,1422.53L3168.06,1445.09C3168.06,1446.86 3167.43,1448.36 3166.19,1449.57C3164.94,1450.79 3163.43,1451.39 3161.65,1451.39L3131.57,1451.39Z"
                    style="fill-rule:nonzero;" />
            </g>
            <g transform="matrix(0.730915,0,0,0.730915,-736.503,540.147)">
                <path
                    d="M3187.79,1600.62C3186.01,1600.62 3184.52,1600.01 3183.3,1598.8C3182.09,1597.58 3181.48,1596.09 3181.48,1594.31L3181.48,1476.4C3181.48,1474.62 3182.09,1473.13 3183.3,1471.91C3184.52,1470.7 3186.01,1470.09 3187.79,1470.09L3216.84,1470.09C3218.62,1470.09 3220.12,1470.7 3221.33,1471.91C3222.54,1473.13 3223.15,1474.62 3223.15,1476.4L3223.15,1482.04C3227.46,1476.81 3238.86,1465.86 3265.04,1470.42C3272.78,1471.77 3249.1,1469.44 3258.66,1469.44C3268.26,1469.44 3283.14,1472.38 3290.59,1476.74C3298.05,1481.11 3303.92,1487.49 3308.21,1495.88C3312.5,1504.28 3314.64,1514.62 3314.64,1526.9L3314.64,1594.31C3314.64,1596.09 3314.04,1597.58 3312.82,1598.8C3311.61,1600.01 3310.11,1600.62 3308.34,1600.62L3276.77,1600.62C3274.99,1600.62 3273.5,1600.01 3272.29,1598.8C3271.07,1597.58 3270.47,1596.09 3270.47,1594.31L3270.47,1534.13C3270.47,1526.29 3268.56,1520.21 3264.76,1515.89C3260.95,1511.57 3255.44,1509.41 3248.22,1509.41C3241.26,1509.41 3235.73,1511.57 3231.64,1515.89C3227.55,1520.21 3225.5,1526.29 3225.5,1534.13L3225.5,1594.31C3225.5,1596.09 3224.9,1597.58 3223.68,1598.8C3222.47,1600.01 3220.98,1600.62 3219.2,1600.62L3187.79,1600.62Z"
                    style="fill-rule:nonzero;" />
            </g>
            <g transform="matrix(0.730915,0,0,0.730915,-736.503,540.147)">
                <path
                    d="M3335.98,1600.62C3334.2,1600.62 3332.7,1600.01 3331.49,1598.8C3330.28,1597.58 3329.67,1596.09 3329.67,1594.31L3329.67,1428.71C3329.67,1426.93 3330.28,1425.43 3331.49,1424.22C3332.7,1423.01 3334.2,1422.4 3335.98,1422.4L3365.03,1422.4C3366.81,1422.4 3368.31,1423.01 3369.52,1424.22C3370.73,1425.43 3371.34,1426.93 3371.34,1428.71L3371.34,1501.21C3371.34,1503.07 3372.48,1504.73 3374.21,1505.4C3375.94,1506.06 3377.9,1505.6 3379.15,1504.22C3389.41,1492.87 3406.14,1474.36 3406.14,1474.36C3407.22,1473.25 3408.34,1472.26 3409.48,1471.39C3410.62,1470.53 3412.34,1470.09 3414.64,1470.09L3448.12,1470.09C3449.73,1470.09 3451.07,1470.63 3452.15,1471.71C3453.22,1472.79 3453.76,1474.13 3453.76,1475.74C3453.76,1476.41 3453.61,1477.15 3453.29,1477.97C3452.98,1478.78 3452.47,1479.45 3451.76,1479.98L3406.45,1528.64L3458.03,1591.05C3459.26,1592.43 3459.88,1593.74 3459.88,1594.97C3459.88,1596.58 3459.34,1597.92 3458.27,1599C3457.19,1600.08 3455.85,1600.62 3454.23,1600.62L3419.78,1600.62C3417.27,1600.62 3415.45,1600.15 3414.31,1599.2C3413.17,1598.26 3412.06,1597.31 3410.97,1596.35C3410.97,1596.35 3390.83,1572.13 3379.27,1558.23C3378.06,1556.77 3376.07,1556.23 3374.3,1556.88C3372.52,1557.52 3371.34,1559.2 3371.34,1561.09L3371.34,1594.31C3371.34,1596.09 3370.73,1597.58 3369.52,1598.8C3368.31,1600.01 3366.81,1600.62 3365.03,1600.62L3335.98,1600.62Z"
                    style="fill-rule:nonzero;" />
            </g>
            <g transform="matrix(1.32819,0,0,1.32819,-2571.56,-264.396)">
                <path
                    d="M3125.36,1360.07C3123.91,1360.07 3122.77,1359.64 3121.91,1358.76C3121.06,1357.89 3120.54,1356.95 3120.37,1355.93L3108.62,1281.28C3108.61,1281.16 3108.6,1281.06 3108.59,1280.98C3108.59,1280.89 3108.58,1280.81 3108.58,1280.73C3108.58,1280.05 3108.83,1279.45 3109.33,1278.95C3109.83,1278.45 3110.42,1278.2 3111.11,1278.2L3129.25,1278.2C3131.61,1278.2 3132.91,1279.17 3133.15,1281.1C3133.15,1281.1 3136.57,1304.28 3138.16,1315.04C3138.24,1315.61 3138.71,1316.06 3139.29,1316.1C3139.87,1316.15 3140.41,1315.79 3140.59,1315.23C3142.55,1309.07 3145.56,1299.59 3145.56,1299.59C3145.73,1299.02 3146.09,1298.33 3146.65,1297.53C3147.2,1296.73 3148.14,1296.33 3149.47,1296.33L3159.65,1296.33C3160.99,1296.33 3161.94,1296.73 3162.48,1297.53C3163.03,1298.33 3163.39,1299.02 3163.56,1299.59C3163.56,1299.59 3166.57,1309.03 3168.53,1315.16C3168.71,1315.71 3169.24,1316.07 3169.82,1316.03C3170.41,1315.98 3170.88,1315.54 3170.96,1314.96C3172.55,1304.24 3175.97,1281.1 3175.97,1281.1C3176.2,1279.17 3177.5,1278.2 3179.87,1278.2L3198.01,1278.2C3198.69,1278.2 3199.29,1278.45 3199.79,1278.95C3200.29,1279.45 3200.54,1280.05 3200.54,1280.73C3200.54,1280.81 3200.53,1280.89 3200.53,1280.98C3200.52,1281.06 3200.51,1281.16 3200.49,1281.28L3188.74,1355.93C3188.64,1356.95 3188.14,1357.89 3187.25,1358.76C3186.37,1359.64 3185.2,1360.07 3183.76,1360.07L3169.84,1360.07C3168.4,1360.07 3167.32,1359.7 3166.61,1358.94C3165.9,1358.19 3165.45,1357.54 3165.27,1356.98C3165.27,1356.98 3158.51,1338.85 3155.73,1331.39C3155.55,1330.9 3155.08,1330.58 3154.56,1330.58C3154.04,1330.58 3153.57,1330.9 3153.39,1331.39C3150.61,1338.85 3143.85,1356.98 3143.85,1356.98C3143.66,1357.54 3143.22,1358.19 3142.51,1358.94C3141.79,1359.7 3140.72,1360.07 3139.27,1360.07L3125.36,1360.07Z"
                    style="fill-rule:nonzero;" />
            </g>
            <g transform="matrix(1.32819,0,0,1.32819,-2571.56,-264.396)">
                <path
                    d="M3218.32,1360.07C3217.48,1360.07 3216.76,1359.78 3216.16,1359.18C3215.57,1358.59 3215.27,1357.87 3215.27,1357.02L3215.27,1302.3C3215.27,1301.46 3215.57,1300.74 3216.16,1300.15C3216.76,1299.55 3217.48,1299.26 3218.32,1299.26L3235.7,1299.26C3236.55,1299.26 3237.26,1299.55 3237.86,1300.15C3238.45,1300.74 3238.75,1301.46 3238.75,1302.3L3238.75,1357.02C3238.75,1357.87 3238.45,1358.59 3237.86,1359.18C3237.26,1359.78 3236.55,1360.07 3235.7,1360.07L3218.32,1360.07ZM3218.55,1291.68C3217.71,1291.68 3216.99,1291.39 3216.4,1290.79C3215.8,1290.2 3215.51,1289.48 3215.51,1288.64L3215.51,1276.3C3215.51,1275.46 3215.8,1274.74 3216.4,1274.14C3216.99,1273.54 3217.71,1273.23 3218.55,1273.23L3235.45,1273.23C3236.29,1273.23 3237.01,1273.54 3237.61,1274.14C3238.22,1274.74 3238.52,1275.46 3238.52,1276.3L3238.52,1288.64C3238.52,1289.48 3238.22,1290.2 3237.61,1290.79C3237.01,1291.39 3236.29,1291.68 3235.45,1291.68L3218.55,1291.68Z"
                    style="fill-rule:nonzero;" />
            </g>
            <g transform="matrix(1.32819,0,0,1.32819,-2571.56,-264.396)">
                <path
                    d="M3256.21,1360.07C3255.37,1360.07 3254.65,1359.78 3254.06,1359.18C3253.46,1358.59 3253.16,1357.87 3253.16,1357.02L3253.16,1302.3C3253.16,1301.46 3253.46,1300.74 3254.06,1300.15C3254.65,1299.55 3255.37,1299.26 3256.21,1299.26L3273.6,1299.26C3274.44,1299.26 3275.16,1299.55 3275.75,1300.15C3276.35,1300.74 3276.64,1301.46 3276.64,1302.3L3276.64,1357.02C3276.64,1357.87 3276.35,1358.59 3275.75,1359.18C3275.16,1359.78 3274.44,1360.07 3273.6,1360.07L3256.21,1360.07ZM3256.45,1291.68C3255.6,1291.68 3254.89,1291.39 3254.29,1290.79C3253.7,1290.2 3253.4,1289.48 3253.4,1288.64L3253.4,1276.3C3253.4,1275.46 3253.7,1274.74 3254.29,1274.14C3254.89,1273.54 3255.6,1273.23 3256.45,1273.23L3273.34,1273.23C3274.18,1273.23 3274.91,1273.54 3275.51,1274.14C3276.11,1274.74 3276.41,1275.46 3276.41,1276.3L3276.41,1288.64C3276.41,1289.48 3276.11,1290.2 3275.51,1290.79C3274.91,1291.39 3274.18,1291.68 3273.34,1291.68L3256.45,1291.68Z"
                    style="fill-rule:nonzero;" />
            </g>
        </g>
    </g>
</svg>