<?xml version="1.0" encoding="UTF-8" standalone="no"?><!DOCTYPE svg PUBLIC "-//W3C//DTD SVG 1.1//EN" "http://www.w3.org/Graphics/SVG/1.1/DTD/svg11.dtd"><svg width="100%" height="100%" viewBox="0 0 2744 1553" preserveAspectRatio="none" version="1.1" xmlns="http://www.w3.org/2000/svg" xmlns:xlink="http://www.w3.org/1999/xlink" xml:space="preserve" xmlns:serif="http://www.serif.com/" style="fill-rule:evenodd;clip-rule:evenodd;stroke-linejoin:round;stroke-miterlimit:2;"><path d="M0.344,1224.08c-0.121,31.711 12.869,62.063 35.893,83.868c57.627,54.576 169.607,160.629 225.389,213.458c21.346,20.216 49.629,31.481 79.029,31.477c287.615,-0.037 1846.88,-0.238 2285.2,-0.295c63.368,-0.008 114.768,-51.314 114.893,-114.682c0.564,-286.991 2.033,-1033.79 2.598,-1321.2c0.06,-30.503 -12.011,-59.779 -33.553,-81.375c-21.542,-21.597 -50.787,-33.742 -81.29,-33.759c-446.707,-0.253 -2063.18,-1.167 -2508.96,-1.419c-63.317,-0.036 -114.731,51.155 -114.972,114.471c-1.018,267.308 -3.518,923.722 -4.225,1109.46Z"/></svg>