<?xml version="1.0" standalone="no"?>
<!DOCTYPE svg PUBLIC "-//W3C//DTD SVG 20010904//EN"
 "http://www.w3.org/TR/2001/REC-SVG-20010904/DTD/svg10.dtd">
<svg version="1.0" xmlns="http://www.w3.org/2000/svg"
 width="594.000000pt" height="594.000000pt" viewBox="0 0 594.000000 594.000000"
 preserveAspectRatio="xMidYMid meet">
<metadata>
Created by potrace 1.14, written by Peter Selinger 2001-2017
</metadata>
<g transform="translate(0.000000,594.000000) scale(0.100000,-0.100000)"
fill="#000000" stroke="none">
<path d="M277 4885 c-89 -24 -168 -90 -212 -176 -46 -90 -48 -126 -42 -1017 3
-461 6 -980 6 -1154 1 -297 2 -321 22 -373 23 -61 133 -190 152 -178 6 3 7 1
3 -6 -4 -6 0 -14 10 -18 9 -3 31 -21 48 -39 17 -18 245 -225 506 -459 340
-305 490 -434 530 -453 53 -26 62 -27 270 -33 118 -3 1083 -5 2145 -5 l1930 1
57 23 c81 33 158 106 194 184 l29 63 3 1664 c3 1846 6 1735 -63 1836 -53 77
-110 118 -200 141 -74 20 -5316 19 -5388 -1z m4753 -1950 l0 -1065 -1685 0
-1685 0 -370 331 -370 330 0 735 0 734 2055 0 2055 0 0 -1065z"/>
</g>
</svg>
