<svg id="svg" version="1.1" width="800" height="533" xmlns="http://www.w3.org/2000/svg"><path d="M328.500 5.596 C 326.850 5.791,319.650 6.629,312.500 7.459 C 305.350 8.288,295.225 9.476,290.000 10.099 C 284.775 10.722,277.125 11.612,273.000 12.077 C 268.875 12.541,263.250 13.375,260.500 13.929 C 257.750 14.483,252.328 15.378,248.452 15.918 C 244.575 16.458,239.400 17.357,236.952 17.917 C 234.503 18.476,228.225 19.850,223.000 20.970 C 217.775 22.090,210.575 23.701,207.000 24.550 C 203.425 25.400,197.800 26.713,194.500 27.469 C 180.008 30.788,144.985 41.805,135.500 46.028 C 133.300 47.007,130.150 48.266,128.500 48.825 C 120.922 51.392,104.717 58.537,97.000 62.713 C 92.325 65.242,84.675 69.310,80.000 71.751 C 75.325 74.192,70.600 77.004,69.500 78.000 C 68.400 78.995,66.105 80.640,64.401 81.655 C 51.429 89.378,35.716 103.203,22.405 118.604 C 16.646 125.268,10.513 135.616,7.059 144.500 C 5.776 147.800,3.888 152.608,2.863 155.185 C 1.383 158.907,1.003 162.506,1.012 172.685 L 1.025 185.500 5.871 197.515 C 12.585 214.164,20.003 225.047,34.129 238.977 C 44.425 249.129,47.758 251.813,62.098 261.500 C 66.169 264.250,69.757 266.846,70.071 267.270 C 70.781 268.226,83.679 275.064,99.500 282.872 C 118.086 292.044,124.807 295.019,134.000 298.142 C 138.675 299.730,143.400 301.474,144.500 302.018 C 146.529 303.020,166.007 309.489,171.500 310.985 C 173.150 311.435,180.800 313.440,188.500 315.441 C 196.200 317.442,203.850 319.490,205.500 319.992 C 208.688 320.962,222.589 323.989,235.000 326.415 C 239.125 327.221,246.325 328.630,251.000 329.544 C 255.675 330.459,263.775 331.596,269.000 332.070 C 274.225 332.545,279.625 333.189,281.000 333.501 C 287.969 335.086,304.149 336.820,332.000 338.969 C 350.983 340.434,448.129 340.434,467.000 338.969 C 498.439 336.529,511.739 335.133,519.000 333.511 C 520.375 333.204,525.550 332.564,530.500 332.089 C 538.977 331.276,547.148 329.907,563.500 326.558 C 567.350 325.769,573.200 324.600,576.500 323.960 C 588.137 321.702,594.588 320.186,603.000 317.733 C 607.675 316.369,613.075 314.963,615.000 314.608 C 620.039 313.677,650.525 304.115,655.500 301.905 C 656.600 301.416,661.100 299.830,665.500 298.380 C 669.900 296.930,676.425 294.293,680.000 292.519 C 683.575 290.746,688.750 288.477,691.500 287.478 C 694.250 286.479,697.175 285.145,698.000 284.514 C 698.825 283.883,702.425 281.912,706.000 280.133 C 719.772 273.279,736.034 263.370,748.066 254.500 C 754.477 249.774,767.964 237.838,770.137 234.968 C 771.437 233.251,773.431 230.869,774.570 229.673 C 779.737 224.248,787.156 213.148,790.728 205.500 C 791.498 203.850,792.492 201.810,792.937 200.967 C 793.382 200.124,794.088 197.874,794.506 195.967 C 794.924 194.060,796.107 190.932,797.133 189.015 C 799.892 183.864,799.802 161.301,797.000 155.500 C 795.937 153.300,795.051 151.050,795.029 150.500 C 794.971 148.998,790.711 139.047,788.180 134.500 C 777.772 115.807,762.204 99.468,742.500 86.557 C 739.200 84.395,734.250 80.944,731.500 78.887 C 726.941 75.478,717.474 70.202,701.500 62.168 C 688.144 55.451,672.605 48.903,659.500 44.469 C 657.300 43.725,652.350 41.937,648.500 40.496 C 644.650 39.055,640.150 37.482,638.500 37.001 C 626.841 33.600,613.744 29.735,609.635 28.483 C 606.960 27.667,603.892 27.000,602.819 27.000 C 601.746 27.000,599.978 26.523,598.889 25.941 C 597.800 25.358,593.667 24.275,589.705 23.535 C 574.343 20.664,561.907 18.060,561.059 17.537 C 560.572 17.236,556.422 16.549,551.837 16.010 C 547.252 15.471,541.250 14.559,538.500 13.983 C 532.502 12.725,523.478 11.553,508.000 10.019 C 501.675 9.393,491.775 8.142,486.000 7.241 C 477.083 5.849,464.647 5.574,403.500 5.421 C 363.900 5.322,330.150 5.400,328.500 5.596 M1.667 224.667 C 1.300 225.033,1.000 231.911,1.000 239.951 L 1.000 254.568 6.205 261.534 C 12.501 269.960,32.811 290.353,39.018 294.480 C 41.483 296.119,44.850 298.753,46.500 300.333 C 48.150 301.913,51.826 304.532,54.669 306.152 C 57.511 307.773,60.379 309.752,61.041 310.550 C 61.703 311.347,62.626 312.000,63.091 312.000 C 63.557 312.000,66.989 313.970,70.719 316.377 C 77.188 320.553,94.397 329.578,104.000 333.831 C 117.164 339.660,120.239 340.970,128.500 344.267 C 146.907 351.613,157.973 355.560,164.000 356.928 C 165.925 357.365,169.300 358.408,171.500 359.245 C 173.700 360.082,178.200 361.487,181.500 362.366 C 184.800 363.246,190.650 364.821,194.500 365.868 C 198.350 366.914,204.875 368.512,209.000 369.419 C 213.125 370.326,218.300 371.495,220.500 372.016 C 229.584 374.169,240.052 376.201,249.000 377.548 C 254.225 378.335,260.525 379.469,263.000 380.069 C 265.475 380.669,270.650 381.544,274.500 382.013 C 278.350 382.483,284.200 383.354,287.500 383.949 C 290.800 384.544,299.590 385.448,307.033 385.957 C 314.476 386.467,324.364 387.360,329.007 387.942 C 339.944 389.313,460.724 389.309,471.000 387.937 C 475.125 387.386,484.575 386.502,492.000 385.973 C 499.425 385.443,508.425 384.534,512.000 383.953 C 515.575 383.371,521.650 382.504,525.500 382.027 C 529.350 381.550,534.525 380.662,537.000 380.053 C 539.475 379.445,545.100 378.503,549.500 377.961 C 553.900 377.418,558.173 376.727,558.996 376.424 C 559.818 376.122,564.768 375.000,569.996 373.932 C 594.348 368.957,613.219 364.168,629.254 358.893 C 632.419 357.852,635.724 357.000,636.600 357.000 C 637.475 357.000,639.386 356.380,640.846 355.622 C 644.684 353.630,654.327 350.000,655.780 350.000 C 656.463 350.000,658.929 349.136,661.261 348.081 C 663.592 347.025,666.625 345.850,668.000 345.469 C 670.886 344.670,681.797 340.114,690.500 336.073 C 693.800 334.541,697.624 332.933,698.997 332.498 C 700.370 332.064,703.970 330.345,706.997 328.679 C 710.024 327.012,715.875 323.788,720.000 321.513 C 724.125 319.239,731.550 314.659,736.500 311.335 C 741.450 308.011,746.851 304.597,748.502 303.748 C 750.154 302.899,752.403 301.213,753.500 300.000 C 754.597 298.787,756.785 297.129,758.360 296.314 C 762.603 294.120,779.686 278.231,786.000 270.605 C 789.025 266.952,793.188 261.919,795.250 259.421 L 799.000 254.878 799.000 239.908 C 799.000 227.305,798.755 224.843,797.449 224.342 C 795.751 223.691,791.000 227.557,791.000 229.590 C 791.000 231.233,772.721 250.221,765.327 256.259 C 753.960 265.541,748.208 269.841,744.875 271.547 C 743.019 272.497,739.923 274.450,737.996 275.887 C 733.648 279.129,731.211 280.673,728.000 282.217 C 726.625 282.878,720.457 286.250,714.294 289.709 C 708.131 293.169,702.759 296.000,702.357 296.000 C 701.649 296.000,683.262 304.194,679.764 306.069 C 678.809 306.581,677.441 307.000,676.725 307.000 C 676.009 307.000,673.839 307.807,671.903 308.794 C 668.269 310.647,627.977 323.940,620.000 325.917 C 617.525 326.531,612.125 327.974,608.000 329.125 C 603.875 330.276,598.025 331.621,595.000 332.116 C 591.975 332.610,588.375 333.508,587.000 334.110 C 585.625 334.713,580.675 335.827,576.000 336.588 C 571.325 337.348,565.250 338.458,562.500 339.054 C 555.150 340.647,547.899 341.841,535.000 343.583 C 528.675 344.437,520.575 345.579,517.000 346.121 C 495.131 349.433,475.346 350.836,435.677 351.887 C 376.628 353.452,315.158 351.126,281.500 346.055 C 278.200 345.557,270.550 344.444,264.500 343.581 C 251.335 341.703,244.214 340.509,237.500 339.054 C 234.750 338.458,228.608 337.342,223.850 336.574 C 219.093 335.806,214.368 334.740,213.350 334.205 C 212.333 333.670,209.475 332.937,207.000 332.575 C 202.913 331.978,195.189 330.132,181.500 326.480 C 165.361 322.174,140.118 313.781,123.000 307.031 C 119.975 305.838,115.819 304.240,113.764 303.480 C 109.110 301.759,80.477 287.443,77.036 285.117 C 75.641 284.174,73.375 282.857,72.000 282.191 C 70.625 281.524,68.302 280.196,66.838 279.239 C 65.374 278.283,61.549 275.989,58.338 274.142 C 55.127 272.295,50.475 269.128,48.000 267.105 C 45.525 265.082,41.250 261.798,38.500 259.808 C 32.189 255.241,12.448 235.040,8.150 228.750 C 5.102 224.289,3.226 223.108,1.667 224.667 M692.500 348.616 C 688.650 350.537,682.575 353.234,679.000 354.609 C 675.425 355.984,670.925 357.820,669.000 358.689 C 667.075 359.558,664.150 360.633,662.500 361.077 C 653.785 363.423,637.091 369.864,635.070 371.661 C 633.836 372.758,633.935 373.862,635.796 379.716 C 636.983 383.447,638.685 389.875,639.578 394.000 C 640.472 398.125,641.809 403.525,642.550 406.000 C 643.291 408.475,644.360 412.975,644.926 416.000 C 645.491 419.025,647.314 426.662,648.977 432.971 C 650.640 439.280,652.000 445.497,652.000 446.787 C 652.000 448.076,652.526 450.114,653.169 451.315 C 653.811 452.516,654.896 456.199,655.580 459.499 C 656.263 462.800,657.472 467.975,658.265 471.000 C 659.059 474.025,660.473 479.875,661.408 484.000 C 665.768 503.236,669.626 516.500,671.847 519.889 C 672.713 521.211,675.195 523.577,677.361 525.147 L 681.300 528.000 699.190 528.000 C 715.474 528.000,717.457 527.808,721.290 525.865 C 723.605 524.691,726.540 522.700,727.812 521.440 C 730.019 519.252,730.103 518.639,729.660 507.825 C 729.195 496.492,727.157 478.779,725.020 467.500 C 724.395 464.200,723.504 458.800,723.040 455.500 C 722.576 452.200,721.940 448.825,721.626 448.000 C 721.312 447.175,720.604 442.225,720.052 437.000 C 719.501 431.775,718.569 424.575,717.981 421.000 C 717.393 417.425,716.508 411.800,716.015 408.500 C 715.521 405.200,714.589 399.800,713.945 396.500 C 712.663 389.939,711.957 385.339,709.573 368.000 C 707.300 351.467,706.423 347.782,704.408 346.309 C 701.827 344.422,700.319 344.714,692.500 348.616 M95.255 347.250 C 92.625 350.571,91.586 354.358,90.391 364.976 C 88.958 377.703,87.659 386.663,86.039 395.000 C 85.452 398.025,84.335 405.778,83.558 412.228 C 82.781 418.678,81.892 424.366,81.582 424.868 C 81.271 425.370,80.292 430.892,79.405 437.140 C 76.958 454.370,76.102 459.985,75.007 466.000 C 74.456 469.025,73.331 476.675,72.507 483.000 C 69.862 503.292,69.253 507.444,68.511 510.250 C 67.064 515.716,70.511 521.398,78.000 525.892 C 81.225 527.828,82.953 527.990,100.000 527.963 C 118.481 527.934,118.504 527.931,122.404 525.217 C 129.416 520.338,129.678 519.692,137.523 488.000 C 141.383 472.407,143.150 464.828,144.465 458.225 C 145.262 454.223,146.248 450.408,146.656 449.747 C 147.065 449.086,147.927 445.835,148.573 442.523 C 149.219 439.210,150.944 431.775,152.407 426.000 C 157.274 406.793,158.822 400.560,160.477 393.500 C 161.380 389.650,162.575 384.680,163.132 382.455 C 163.689 380.230,164.000 376.632,163.823 374.459 L 163.500 370.507 154.000 367.287 C 148.775 365.516,143.150 363.451,141.500 362.699 C 139.850 361.947,135.350 360.293,131.500 359.024 C 127.650 357.755,124.034 356.355,123.465 355.914 C 122.896 355.473,119.071 353.901,114.965 352.422 C 110.859 350.942,105.932 348.891,104.015 347.865 C 99.975 345.703,96.664 345.470,95.255 347.250 " stroke="none" fill="#fff" fill-rule="evenodd"/></svg>