<svg id="svg" version="1.1" width="800" height="488" xmlns="http://www.w3.org/2000/svg"><path d="M253.473 6.358 C 252.388 7.104,249.700 8.280,247.500 8.971 C 241.867 10.739,231.000 16.108,231.000 17.123 C 231.000 17.590,229.088 19.211,226.750 20.726 C 222.545 23.450,205.915 38.391,188.500 55.091 C 171.995 70.917,169.715 73.000,168.891 73.000 C 168.441 73.000,167.024 74.542,165.743 76.427 L 163.414 79.854 163.833 73.285 C 164.064 69.661,163.649 64.201,162.907 61.108 C 161.757 56.308,160.612 54.548,154.958 48.892 C 146.751 40.682,142.850 39.473,127.104 40.262 C 108.069 41.216,91.557 48.524,77.160 62.366 C 62.588 76.376,55.377 90.502,46.463 122.500 C 45.544 125.800,43.938 130.608,42.896 133.185 C 41.853 135.762,41.001 138.462,41.003 139.185 C 41.006 140.550,37.104 153.122,28.955 178.000 C 26.343 185.975,23.218 196.100,22.010 200.500 C 20.802 204.900,19.173 210.525,18.390 213.000 C 17.607 215.475,16.040 220.425,14.907 224.000 C 13.775 227.575,11.983 232.759,10.925 235.519 C 9.866 238.280,9.000 241.111,9.000 241.810 C 9.000 242.510,8.147 245.876,7.104 249.291 C 3.996 259.470,2.740 268.938,3.293 278.000 C 4.332 294.990,7.468 301.841,17.036 308.022 C 24.357 312.752,28.380 314.000,36.307 314.000 C 51.955 314.000,73.578 305.711,87.488 294.380 C 101.377 283.066,112.095 264.304,119.982 237.500 C 120.467 235.850,121.550 232.700,122.388 230.500 C 123.226 228.300,123.932 225.995,123.956 225.377 C 123.980 224.760,124.948 222.112,126.106 219.494 L 128.212 214.733 130.566 217.616 C 131.861 219.202,134.977 223.875,137.490 228.000 C 140.004 232.125,142.902 236.625,143.931 238.000 C 144.959 239.375,148.390 244.500,151.555 249.388 C 156.656 257.269,164.487 266.383,169.102 269.809 C 172.545 272.366,184.656 276.000,189.735 276.000 C 197.185 276.000,214.034 271.390,224.500 266.488 C 227.250 265.200,231.524 263.554,233.999 262.831 C 239.117 261.335,248.772 255.307,254.099 250.284 L 257.698 246.889 259.205 249.195 C 260.034 250.463,261.009 252.441,261.373 253.592 C 262.257 256.388,265.453 259.227,271.500 262.588 C 281.818 268.322,301.020 266.700,316.341 258.799 C 326.423 253.600,336.992 243.825,340.462 236.489 C 343.915 229.189,345.383 228.168,348.794 230.690 C 352.101 233.134,362.712 237.000,366.117 237.000 C 370.273 237.000,370.949 238.561,369.293 244.337 C 367.024 252.254,365.235 258.197,364.126 261.500 C 363.573 263.150,362.405 267.200,361.532 270.500 C 360.658 273.800,359.281 278.884,358.472 281.799 C 357.662 284.713,357.000 287.906,357.000 288.894 C 357.000 292.375,353.867 293.709,344.161 294.362 C 336.687 294.865,333.292 295.654,327.161 298.312 C 319.587 301.595,309.379 308.586,305.497 313.147 C 298.847 320.962,295.199 325.948,293.716 329.250 C 292.103 332.843,291.827 333.000,287.142 333.000 C 284.452 333.000,280.471 333.628,278.294 334.396 C 276.118 335.164,270.324 336.120,265.418 336.520 C 260.513 336.920,255.375 337.826,254.000 338.534 C 250.850 340.156,247.224 344.131,243.213 350.358 L 240.083 355.217 238.931 350.639 C 237.540 345.116,236.824 344.458,230.461 342.857 C 227.732 342.170,225.192 341.359,224.815 341.054 C 224.439 340.749,225.435 335.775,227.030 330.000 C 230.939 315.841,230.798 311.322,226.171 302.500 C 224.050 298.456,221.444 294.955,220.000 294.209 C 216.813 292.563,206.584 293.345,184.000 296.963 C 178.035 297.918,173.351 298.604,156.500 300.990 C 153.200 301.457,147.125 302.340,143.000 302.953 C 138.875 303.566,132.575 304.501,129.000 305.033 C 125.425 305.564,116.875 306.618,110.000 307.376 C 103.125 308.133,96.375 309.203,95.000 309.753 C 93.625 310.304,88.225 311.071,83.000 311.459 C 77.775 311.847,71.925 312.559,70.000 313.042 C 68.075 313.524,64.806 314.184,62.735 314.508 C 60.343 314.882,57.791 316.284,55.735 318.354 C 52.323 321.790,51.404 324.490,46.488 345.500 C 45.073 351.550,43.282 358.139,42.509 360.141 C 41.736 362.144,40.801 367.113,40.432 371.184 C 39.804 378.120,39.953 378.964,42.813 384.629 C 44.491 387.953,47.542 392.147,49.593 393.947 C 53.088 397.016,53.655 397.183,58.661 396.611 C 76.797 394.537,75.159 394.484,74.585 397.122 C 74.300 398.430,72.927 404.286,71.534 410.136 C 68.142 424.376,68.224 429.519,71.961 436.923 C 76.103 445.127,80.066 447.477,88.329 446.625 C 91.723 446.276,96.975 445.536,100.000 444.982 C 105.657 443.947,115.478 442.631,129.500 441.031 C 153.507 438.290,156.703 436.948,160.002 428.212 C 161.101 425.304,162.000 421.592,162.000 419.962 C 162.000 418.333,162.414 417.000,162.921 417.000 C 163.841 417.000,164.388 418.979,165.549 426.500 C 165.888 428.700,166.773 432.525,167.514 435.000 C 168.256 437.475,169.142 441.525,169.484 444.000 C 171.366 457.628,177.428 478.114,180.407 480.912 C 182.616 482.987,183.451 483.101,193.135 482.647 C 202.791 482.194,208.502 481.562,225.000 479.118 C 228.575 478.589,236.572 477.508,242.770 476.716 L 254.040 475.275 258.583 470.466 C 261.082 467.821,263.824 464.271,264.677 462.578 C 265.530 460.885,267.259 458.375,268.518 457.000 C 269.778 455.625,273.702 450.225,277.239 445.000 C 300.088 411.244,306.855 402.006,309.450 401.019 C 310.593 400.584,314.222 400.667,317.514 401.204 C 320.806 401.740,327.438 401.897,332.250 401.553 L 341.000 400.928 341.000 403.496 C 341.000 404.909,341.675 407.680,342.500 409.654 C 343.325 411.629,344.000 414.208,344.000 415.387 C 344.000 419.864,352.888 433.923,359.191 439.415 C 361.561 441.481,364.477 444.045,365.670 445.114 C 368.976 448.073,381.881 453.651,387.500 454.550 C 400.778 456.674,507.751 452.472,526.000 449.109 C 529.025 448.552,536.000 447.629,541.500 447.057 C 547.000 446.486,553.975 445.573,557.000 445.028 C 560.025 444.484,566.100 443.589,570.500 443.041 C 574.900 442.493,580.750 441.572,583.500 440.996 C 586.250 440.419,590.750 439.700,593.500 439.398 C 596.250 439.095,602.325 438.007,607.000 436.980 C 611.675 435.952,619.325 434.361,624.000 433.445 C 628.675 432.528,634.525 431.351,637.000 430.830 C 639.475 430.310,643.525 429.495,646.000 429.019 C 648.475 428.544,653.650 427.404,657.500 426.486 C 661.350 425.568,668.100 423.992,672.500 422.984 C 681.705 420.874,697.077 416.653,703.059 414.592 C 713.455 411.010,729.076 399.396,736.832 389.481 C 740.409 384.909,748.000 373.252,748.003 372.325 C 748.005 371.871,749.406 368.125,751.115 364.000 C 754.728 355.284,766.000 322.296,766.000 320.440 C 766.000 319.747,767.290 315.202,768.866 310.340 C 770.443 305.478,773.162 295.650,774.908 288.500 C 776.654 281.350,778.486 273.925,778.979 272.000 C 779.473 270.075,780.618 264.675,781.524 260.000 C 782.430 255.325,783.845 248.125,784.669 244.000 C 785.493 239.875,786.576 232.450,787.076 227.500 C 787.576 222.550,788.438 215.575,788.992 212.000 C 789.546 208.425,790.485 200.775,791.080 195.000 C 791.674 189.225,792.326 182.925,792.529 181.000 C 792.732 179.075,792.920 164.000,792.948 147.500 C 793.003 114.274,792.777 112.659,786.499 101.432 C 779.927 89.679,764.857 78.962,750.500 75.831 C 738.762 73.270,697.878 74.433,672.500 78.048 C 668.100 78.675,660.675 79.564,656.000 80.024 C 651.325 80.484,644.575 81.341,641.000 81.928 C 626.709 84.278,626.009 84.315,624.225 82.805 C 617.487 77.099,606.214 73.638,596.405 74.265 C 582.100 75.178,571.142 80.109,558.404 91.363 C 554.047 95.212,551.000 95.685,551.000 92.513 C 551.000 91.660,548.142 88.105,544.648 84.611 C 539.382 79.345,536.911 77.725,530.181 75.130 C 525.717 73.408,520.992 72.000,519.681 72.000 C 518.371 72.000,515.881 71.506,514.149 70.902 L 511.000 69.804 511.000 58.268 C 511.000 51.923,510.486 45.018,509.859 42.922 C 508.156 37.239,503.705 32.508,496.826 29.071 C 491.152 26.235,489.885 26.000,480.309 26.000 C 472.678 26.000,468.410 26.514,464.160 27.946 C 451.319 32.272,439.775 40.836,431.061 52.500 C 426.020 59.247,415.157 75.120,411.659 80.848 C 406.350 89.542,404.366 91.000,397.844 91.000 C 394.386 91.000,388.984 92.005,384.405 93.499 C 376.980 95.923,362.647 103.144,361.465 105.057 C 360.594 106.467,354.849 106.129,352.000 104.500 C 350.318 103.538,346.311 103.059,339.750 103.035 C 330.778 103.003,330.000 102.845,330.000 101.059 C 330.000 99.991,330.450 98.840,331.000 98.500 C 332.601 97.511,332.265 72.569,330.597 68.578 C 327.188 60.420,317.059 53.016,309.261 52.985 C 307.192 52.976,304.987 52.639,304.359 52.235 C 303.652 51.780,303.050 46.933,302.777 39.500 C 302.394 29.068,301.984 26.762,299.639 21.847 C 296.495 15.257,290.628 10.007,283.086 7.034 C 276.717 4.523,256.798 4.069,253.473 6.358 " stroke="none" fill="#fff" fill-rule="evenodd"/></svg>